<?xml version="1.0" encoding="utf-8"?>
<!-- Generator: Adobe Illustrator 22.1.0, SVG Export Plug-In . SVG Version: 6.00 Build 0)  -->
<svg version="1.1" id="Layer_1" xmlns="http://www.w3.org/2000/svg" xmlns:xlink="http://www.w3.org/1999/xlink" x="0px" y="0px"
	 viewBox="0 0 60 110" style="enable-background:new 0 0 60 110;" xml:space="preserve">
<style type="text/css">
	.st0{fill:#8DA0AB;}
</style>
<g>
	<path class="st0" d="M31,23.3c-3.4-4.1-7-7-10.8-8.5c-1.5-0.6-3-0.9-4.4-0.9c-5.5,0-8.2,4.5-8.9,5.9c-1.2,2.4-1.2,5.1,0.2,7.4
		c1.6,2.6,4.6,4.2,7.8,4.2c1.6,0,3.2-0.4,4.7-1.2c2.4-1.2,5-1.8,7.6-1.8c4.5,0,7.8,1.9,7.8,1.9c0,0,0.1,0,0.2,0
		c0.2,0,0.3-0.1,0.3-0.3c0-0.1,0-0.1,0-0.2l0,0C35.1,29.3,33.6,26.5,31,23.3z"/>
	<path class="st0" d="M53.4,20.9L53.4,20.9c-0.4-0.7-1.8-3.1-4.6-3.1c-0.7,0-1.5,0.2-2.3,0.5c-4.6,1.8-7.5,6.9-8.1,7.9
		c0.5-0.3,2.1-1,4.2-1c1.5,0,2.9,0.3,4.2,1c0.8,0.4,1.6,0.6,2.5,0.6c1.7,0,3.2-0.8,4-2.2C54,23.5,54,22.1,53.4,20.9z"/>
	<path class="st0" d="M38.7,7.1L38.7,7.1c-2.4,0-5.1,1.3-5.5,4.9c-0.5,4.9,2.6,9.9,3.2,10.8c0-0.9,0.3-4.8,4-7.4
		c1.9-1.3,2.7-3.5,2-5.6C41.8,8.2,40.4,7.1,38.7,7.1z"/>
	<path class="st0" d="M48.3,97.4L48.3,97l-8-55.4c-0.1-0.8-0.8-1.3-1.5-1.3h-7.3c-0.8,0-1.4,0.6-1.5,1.3l-8.1,55.8h-2.5
		c-0.5,0-0.9,0.4-0.9,0.9v4.3c0,0.5,0.4,0.9,0.9,0.9h31.6c0.5,0,0.9-0.4,0.9-0.9v-4.3c0-0.5-0.4-0.9-0.9-0.9H48.3z M43.2,83.8
		L31,74.4l9.9-6.3L43.2,83.8z M40.3,63.6l-7.9-5.9l6.3-5.3L40.3,63.6z M32.8,43.4h4.6l0.8,5.3l-7,5.9L32.8,43.4z M30.3,60.1l8,6
		l-9.7,6.2L30.3,60.1z M28,76.1l12.3,9.4L25.1,96.6L28,76.1z M30.2,96.7L43.7,87l1.4,9.8H30.2z"/>
</g>
</svg>
