<?xml version="1.0" encoding="utf-8"?>
<!-- Generator: Adobe Illustrator 22.1.0, SVG Export Plug-In . SVG Version: 6.00 Build 0)  -->
<svg version="1.1" id="Layer_1" xmlns="http://www.w3.org/2000/svg" xmlns:xlink="http://www.w3.org/1999/xlink" x="0px" y="0px"
	 viewBox="0 0 74 52" style="enable-background:new 0 0 74 52;" xml:space="preserve">
<style type="text/css">
	.st0{fill:#77AFDE;}
</style>
<g>
	<path class="st0" d="M37,37.2c-0.8-0.6-1.7-0.8-2.6-0.6c-0.1-0.8-0.6-1.6-1.2-2.1c-0.7-0.5-1.5-0.7-2.4-0.6c-0.2,0-0.4,0.1-0.6,0.1
		c-0.2-0.6-0.6-1.2-1.2-1.7c-1-0.7-2.2-0.8-3.2-0.4c-0.2-0.6-0.6-1.2-1.1-1.6c-0.7-0.5-1.5-0.7-2.4-0.6c-0.7,0.1-1.3,0.4-1.8,0.9
		l-3.4-0.2l2.1-17l3.7,0.3c0,0,0,0,0.1,0c0.3,0,0.7-0.2,0.8-0.5l1.4-2.7c0.4-0.7,1.2-1,1.9-0.8l2.1,0.6c0.5,0.1,1-0.2,1.1-0.6
		c0.1-0.5-0.2-1-0.6-1.1l-2.1-0.6c-1.6-0.4-3.3,0.3-4.1,1.8l-1.1,2.2l-3-0.2l0.1-0.6c0.2-1.9-1.1-3.6-3-3.8L9.3,6.4
		c-0.5-0.1-1,0.3-1,0.8c-0.1,0.5,0.3,1,0.8,1l7.2,0.9c0.4,0.1,0.8,0.3,1,0.6c0.3,0.3,0.4,0.7,0.3,1.1l-2.5,20
		c-0.1,0.8-0.9,1.4-1.7,1.3l-7.2-0.9c-0.5-0.1-1,0.3-1,0.8c-0.1,0.5,0.3,1,0.8,1l7.2,0.9c0.1,0,0.3,0,0.4,0c1.3,0,2.4-0.7,3-1.8
		l2.6,0.2c-0.3,0.6-0.4,1.3-0.3,1.9c0.1,0.9,0.6,1.6,1.3,2.1c0.6,0.4,1.3,0.7,2,0.7c0.1,0,0.3,0,0.5,0c0,0,0,0,0,0c0,0,0,0,0,0
		c0.1,0.9,0.6,1.6,1.3,2.1c0.6,0.4,1.3,0.7,2,0.7c0.2,0,0.3,0,0.5,0c0.1,0.8,0.5,1.6,1.3,2.2c0.6,0.4,1.3,0.7,2,0.7
		c0.2,0,0.3,0,0.5,0c0,0,0,0,0,0c0.1,0.9,0.6,1.6,1.3,2.1c0.6,0.4,1.3,0.7,2,0.7c0.1,0,0.3,0,0.5,0c0.9-0.1,1.6-0.6,2.1-1.3l1.9-2.5
		C38.7,40.4,38.4,38.3,37,37.2z M22.2,35.3c-0.4,0.1-0.7,0-1-0.3c-0.3-0.2-0.5-0.5-0.5-0.9c-0.1-0.4,0-0.7,0.3-1l0.7-0.9
		c0.2-0.3,0.5-0.5,0.9-0.5c0.4-0.1,0.7,0,1,0.3c0.3,0.2,0.5,0.5,0.5,0.9s0,0.7-0.3,1l-0.7,0.9C22.9,35.1,22.6,35.3,22.2,35.3z
		 M24.9,37.9c-0.3-0.2-0.5-0.5-0.5-0.9c-0.1-0.4,0-0.7,0.3-1l0.7-0.9c0,0,0,0,0,0l0.6-0.8c0.3-0.4,0.7-0.5,1.1-0.5
		c0.3,0,0.6,0.1,0.8,0.3c0.6,0.5,0.7,1.3,0.3,1.9l-1.3,1.8C26.4,38.2,25.5,38.3,24.9,37.9z M28.6,40.7c-0.3-0.2-0.5-0.5-0.5-0.9
		c-0.1-0.4,0-0.7,0.3-1c0,0,0,0,0,0l1.3-1.8l0,0l0.5-0.6c0.2-0.3,0.5-0.5,0.9-0.5c0.4-0.1,0.7,0,1,0.3c0.6,0.5,0.7,1.3,0.3,1.9
		l-1.8,2.4c0,0,0,0,0,0C30.1,41,29.2,41.1,28.6,40.7z M36.2,40.7l-1.9,2.5c-0.2,0.3-0.5,0.5-0.9,0.5c-0.4,0.1-0.7,0-1-0.3
		s-0.5-0.5-0.5-0.9c-0.1-0.4,0-0.7,0.3-1l1.8-2.4c0,0,0,0,0,0l0.1-0.1c0.2-0.3,0.5-0.5,0.9-0.5c0.4-0.1,0.7,0,1,0.3
		C36.5,39.2,36.6,40.1,36.2,40.7z"/>
	<path class="st0" d="M68.8,32.1c-0.1-0.5-0.5-0.9-1-0.8l-7.2,0.9c-0.8,0.1-1.6-0.5-1.7-1.3l-0.1-0.6l0,0l0-0.1l-2.4-19.3
		c-0.1-0.4,0.1-0.8,0.3-1.1c0.3-0.3,0.6-0.5,1-0.6l7.2-0.9c0.5-0.1,0.9-0.5,0.8-1c-0.1-0.5-0.5-0.9-1-0.8l-7.2,0.9
		c-1.8,0.2-3,1.7-3,3.5L52.7,11l-5.6-3.2c-0.8-0.4-1.7-0.6-2.6-0.6c0,0,0,0,0,0l-1.7,0.2c-0.5,0-0.9,0.5-0.8,1c0,0.5,0.5,0.9,1,0.8
		l1.7-0.2c0.5,0,1.1,0.1,1.5,0.3l5.8,3.3c0.2,0.1,0.4,0.2,0.6,0.1l2.1-0.3l1.5,12.5l0.5,4.3l-3.4,0c-0.2,0-0.4,0.1-0.6,0.2l-0.3,0.2
		l-8.4-7.3c1.9-0.6,3.8-1.9,5.5-4c0.3-0.4,0.3-1-0.1-1.3c-0.4-0.3-1-0.3-1.3,0.1c-1.9,2.4-3.9,3.6-6,3.6c-3,0.1-5.2-2.4-5.2-2.5
		c-0.2-0.2-0.5-0.3-0.7-0.3c-0.3,0-0.5,0.1-0.7,0.4L33,21.9c-1.3,1.7-3.6,2.4-5.6,1.6l-0.3-0.1c-0.2-0.1-0.3-0.3-0.4-0.4
		c0-0.1-0.1-0.3,0-0.5l6.5-11.2c0.4-0.7,1.2-1.2,2-1.3l3.9-0.4c0.5,0,0.9-0.5,0.8-1c0-0.5-0.5-0.9-1-0.8l-3.9,0.4
		c-1.4,0.1-2.7,1-3.5,2.2l-6.5,11.2c-0.4,0.6-0.4,1.4-0.2,2.1s0.8,1.2,1.5,1.5l0.3,0.1c0.8,0.3,1.6,0.4,2.4,0.4c2,0,4-0.9,5.3-2.6
		l1.9-2.4c1,0.9,2.9,2.1,5.3,2.3l12.2,10.5c0.2,0.2,0.4,0.5,0.4,0.7s-0.1,0.6-0.3,0.8l-0.5,0.5c-0.6,0.7-1.6,0.8-2.3,0.2
		c0,0-0.1-0.1-0.1-0.1l-3.2-2.7c-0.4-0.3-1-0.3-1.3,0.1c-0.3,0.4-0.3,1,0.1,1.3l2.6,2.2L48,37.8c-0.4,0.4-0.9,0.6-1.4,0.6
		c-0.3,0-0.6-0.2-0.9-0.4c0,0,0,0,0,0l-2.9-2.5c-0.4-0.3-1-0.3-1.3,0.1c-0.3,0.4-0.3,1,0.1,1.3l2.2,1.9l-1.2,1.4
		c-0.4,0.4-0.9,0.6-1.4,0.6c-0.5-0.1-1,0.3-1,0.8c-0.1,0.5,0.3,1,0.8,1c0.1,0,0.3,0,0.4,0c1,0,2-0.4,2.7-1.2l1.3-1.5
		c0.3,0.2,0.7,0.3,1.1,0.3c1.2,0.1,2.3-0.3,3.1-1.2l1.3-1.5c1.4,0.7,3.1,0.3,4.2-0.9l0.5-0.6c0.5-0.6,0.8-1.4,0.7-2.1
		c-0.1-0.8-0.4-1.5-1-2l-0.8-0.7l2.8,0c0.3,1.6,1.7,2.8,3.3,2.8c0.1,0,0.3,0,0.4,0l7.2-0.9C68.5,33.1,68.9,32.6,68.8,32.1z"/>
	<path class="st0" d="M62.8,25.4c-1.5,0-2.7,1.2-2.7,2.7c0,1.5,1.2,2.7,2.7,2.7c1.5,0,2.7-1.2,2.7-2.7
		C65.6,26.6,64.3,25.4,62.8,25.4z M62.8,29c-0.5,0-0.9-0.4-0.9-0.9s0.4-0.9,0.9-0.9c0.5,0,0.9,0.4,0.9,0.9S63.3,29,62.8,29z"/>
	<path class="st0" d="M13.8,28.1c0-1.5-1.2-2.7-2.7-2.7s-2.7,1.2-2.7,2.7c0,1.5,1.2,2.7,2.7,2.7S13.8,29.6,13.8,28.1z M10.2,28.1
		c0-0.5,0.4-0.9,0.9-0.9c0.5,0,0.9,0.4,0.9,0.9S11.5,29,11.1,29C10.6,29,10.2,28.6,10.2,28.1z"/>
</g>
</svg>
