<?xml version="1.0" encoding="utf-8"?>
<!-- Generator: Adobe Illustrator 22.1.0, SVG Export Plug-In . SVG Version: 6.00 Build 0)  -->
<svg version="1.1" id="Layer_1" xmlns="http://www.w3.org/2000/svg" xmlns:xlink="http://www.w3.org/1999/xlink" x="0px" y="0px"
	 viewBox="0 0 60 72" style="enable-background:new 0 0 60 72;" xml:space="preserve">
<style type="text/css">
	.st0{fill:#003161;}
</style>
<g>
	<path class="st0" d="M30,15.4c-10.2,0-18.4,8.3-18.4,18.4c0,7.7,4.8,14.5,11.9,17.2v9.9c0,0.6,0.5,1.1,1.1,1.1h1.1v2.2
		c0,0.6,0.5,1.1,1.1,1.1h6.5c0.6,0,1.1-0.5,1.1-1.1V62h1.1c0.6,0,1.1-0.5,1.1-1.1v-9.9c7.2-2.7,11.9-9.5,11.9-17.2
		C48.4,23.7,40.2,15.4,30,15.4L30,15.4z M33.3,59.9c-0.6,0-1.1,0.5-1.1,1.1v2.2h-4.3v-2.2c0-0.6-0.5-1.1-1.1-1.1h-1.1v-5.4h8.7v5.4
		H33.3z M35.1,49.3c-0.4,0.1-0.7,0.6-0.7,1v2h-8.7v-2c0-0.5-0.3-0.9-0.7-1c-6.7-2.2-11.2-8.4-11.2-15.4c0-9,7.3-16.3,16.3-16.3
		c9,0,16.3,7.3,16.3,16.3C46.3,40.9,41.8,47.1,35.1,49.3L35.1,49.3z M35.1,49.3"/>
	<g>
		<path class="st0" d="M30,13.2c0.6,0,1.1-0.5,1.1-1.1V7.8c0-0.6-0.5-1.1-1.1-1.1c-0.6,0-1.1,0.5-1.1,1.1v4.3
			C28.9,12.7,29.4,13.2,30,13.2L30,13.2z M30,13.2"/>
		<path class="st0" d="M56,32.7h-4.3c-0.6,0-1.1,0.5-1.1,1.1c0,0.6,0.5,1.1,1.1,1.1H56c0.6,0,1.1-0.5,1.1-1.1
			C57.1,33.2,56.6,32.7,56,32.7L56,32.7z M56,32.7"/>
	</g>
	<path class="st0" d="M8.3,32.7H4c-0.6,0-1.1,0.5-1.1,1.1c0,0.6,0.5,1.1,1.1,1.1h4.3c0.6,0,1.1-0.5,1.1-1.1
		C9.4,33.2,8.9,32.7,8.3,32.7L8.3,32.7z M8.3,32.7"/>
	<path class="st0" d="M47.6,14.7l-3.1,3.1c-0.4,0.4-0.4,1.1,0,1.5c0.2,0.2,0.5,0.3,0.8,0.3c0.3,0,0.6-0.1,0.8-0.3l3.1-3.1
		c0.4-0.4,0.4-1.1,0-1.5C48.7,14.2,48.1,14.2,47.6,14.7L47.6,14.7z M47.6,14.7"/>
	<path class="st0" d="M13.9,48.4l-3.1,3.1c-0.4,0.4-0.4,1.1,0,1.5c0.2,0.2,0.5,0.3,0.8,0.3c0.3,0,0.6-0.1,0.8-0.3l3.1-3.1
		c0.4-0.4,0.4-1.1,0-1.5C15,48,14.3,48,13.9,48.4L13.9,48.4z M13.9,48.4"/>
	<path class="st0" d="M46.1,48.4c-0.4-0.4-1.1-0.4-1.5,0c-0.4,0.4-0.4,1.1,0,1.5l3.1,3.1c0.2,0.2,0.5,0.3,0.8,0.3
		c0.3,0,0.6-0.1,0.8-0.3c0.4-0.4,0.4-1.1,0-1.5L46.1,48.4z M46.1,48.4"/>
	<path class="st0" d="M13.9,19.3c0.2,0.2,0.5,0.3,0.8,0.3c0.3,0,0.6-0.1,0.8-0.3c0.4-0.4,0.4-1.1,0-1.5l-3.1-3.1
		c-0.4-0.4-1.1-0.4-1.5,0c-0.4,0.4-0.4,1.1,0,1.5L13.9,19.3z M13.9,19.3"/>
	<path class="st0" d="M30,20.8c-7.2,0-13,5.8-13,13c0,0.6,0.5,1.1,1.1,1.1c0.6,0,1.1-0.5,1.1-1.1C19.2,27.9,24,23,30,23
		c0.6,0,1.1-0.5,1.1-1.1C31.1,21.3,30.6,20.8,30,20.8L30,20.8z M30,20.8"/>
</g>
</svg>
