<?xml version="1.0" encoding="utf-8"?>
<!-- Generator: Adobe Illustrator 22.1.0, SVG Export Plug-In . SVG Version: 6.00 Build 0)  -->
<svg version="1.1" id="Layer_1" xmlns="http://www.w3.org/2000/svg" xmlns:xlink="http://www.w3.org/1999/xlink" x="0px" y="0px"
	 viewBox="0 0 60 72" style="enable-background:new 0 0 60 72;" xml:space="preserve">
<style type="text/css">
	.st0{fill:#003161;}
</style>
<g>
	<g>
		<g>
			<path class="st0" d="M53.4,27.7C53.4,27.7,53.4,27.7,53.4,27.7c0-0.1,0-0.2-0.1-0.3c0,0,0,0,0,0c0-0.1-0.1-0.2-0.1-0.2
				c0,0,0,0,0,0c0,0-0.1-0.1-0.1-0.1c0,0,0,0,0,0c0,0,0,0-0.1,0c0,0,0,0,0,0c0,0,0,0-0.1,0c0,0-0.1,0-0.1,0c0,0,0,0,0,0l-15.3-6.6
				v-5.3h14v4c0,0.5,0.4,0.9,0.9,0.9c0.5,0,0.9-0.4,0.9-0.9v-4.9c0,0,0,0,0-0.1c0,0,0-0.1,0-0.1c0,0,0,0,0,0c0-0.1,0-0.2-0.1-0.3
				c0,0,0,0,0,0c0-0.1-0.1-0.2-0.1-0.2c0,0,0,0,0,0c0,0-0.1-0.1-0.1-0.1c0,0,0,0,0,0c0,0,0,0-0.1,0c0,0,0,0,0,0c0,0,0,0-0.1,0
				c0,0-0.1,0-0.1,0c0,0,0,0,0,0L37,6.4c-0.1,0-0.2-0.1-0.4-0.1H23.4c-0.1,0-0.3,0-0.4,0.1c0,0-15.9,6.8-15.9,6.8l0,0c0,0,0,0,0,0
				c0,0,0,0-0.1,0c0,0,0,0,0,0c0,0,0,0,0,0c0,0,0,0,0,0c0,0,0,0,0,0c0,0,0,0,0,0c0,0,0,0,0,0c0,0,0,0,0,0c0,0,0,0,0,0c0,0,0,0,0,0
				c0,0,0,0,0,0c0,0,0,0,0,0c0,0,0,0,0,0c0,0,0,0,0,0c0,0,0,0,0,0.1c0,0,0,0,0,0.1c0,0,0,0,0,0c0,0,0,0,0,0.1c0,0,0,0,0,0
				c0,0,0,0,0,0.1c0,0,0,0,0,0c0,0,0,0,0,0.1c0,0,0,0,0,0V19C6.5,19.6,7,20,7.5,20s0.9-0.4,0.9-0.9v-4h14v5.3L7.1,26.9l0,0
				c0,0,0,0,0,0c0,0,0,0-0.1,0c0,0,0,0,0,0c0,0,0,0,0,0c0,0,0,0,0,0c0,0,0,0,0,0c0,0,0,0,0,0c0,0,0,0,0,0c0,0,0,0,0,0c0,0,0,0,0,0
				c0,0,0,0,0,0c0,0,0,0,0,0c0,0,0,0,0,0c0,0,0,0,0,0c0,0,0,0,0,0c0,0,0,0,0,0c0,0,0,0,0,0.1c0,0,0,0,0,0c0,0,0,0,0,0.1c0,0,0,0,0,0
				c0,0,0,0,0,0.1c0,0,0,0,0,0c0,0,0,0,0,0.1c0,0,0,0,0,0v4.9c0,0.5,0.4,0.9,0.9,0.9s0.9-0.4,0.9-0.9v-4h13.7L10.9,64.5c0,0,0,0,0,0
				c0,0,0,0.1,0,0.1c0,0,0,0,0,0c0,0,0,0.1,0,0.1c0,0,0,0,0,0c0,0,0,0.1,0,0.1c0,0,0,0,0,0c0,0.1,0.1,0.2,0.1,0.3c0,0,0,0,0,0
				c0,0,0,0.1,0.1,0.1c0,0,0,0,0,0c0,0,0,0,0,0c0,0,0,0,0.1,0c0,0,0,0,0,0c0,0,0.1,0.1,0.1,0.1c0,0,0,0,0,0c0,0,0,0,0,0
				c0,0,0.1,0,0.1,0.1c0,0,0,0,0,0c0,0,0.1,0,0.1,0c0,0,0,0,0,0c0,0,0.1,0,0.1,0c0,0,0,0,0,0c0,0,0.1,0,0.1,0c0.2,0,0.4-0.1,0.6-0.2
				c0,0,0,0,0.1-0.1l27-25.3l6.7,21.4L33.4,49.6c-0.4-0.4-1-0.3-1.3,0c-0.4,0.4-0.3,1,0,1.3l15.4,14.4c0.2,0.2,0.4,0.3,0.6,0.3
				c0.2,0,0.3,0,0.5-0.1c0.4-0.2,0.5-0.7,0.4-1.1L37.9,28.8h13.7v4c0,0.5,0.4,0.9,0.9,0.9c0.5,0,0.9-0.4,0.9-0.9v-4.9
				C53.5,27.8,53.5,27.8,53.4,27.7C53.5,27.8,53.5,27.7,53.4,27.7L53.4,27.7z M24.4,26.9v-5h11.3v5H24.4z M37.5,13.2V8.7l10.4,4.5
				L37.5,13.2L37.5,13.2z M24.4,8.2h11.3v5H24.4V8.2z M12.1,13.2l10.4-4.5v4.5H12.1z M35.6,15.1v5H24.4v-5H35.6z M22.5,22.4v4.5
				H12.1L22.5,22.4z M20.5,40.2l8.1,7.6L13.8,61.6L20.5,40.2z M38.8,38.2L30,46.4l-8.8-8.3l3-9.4h11.8L38.8,38.2z M37.5,26.9v-4.5
				l10.4,4.5H37.5z M37.5,26.9"/>
		</g>
	</g>
</g>
</svg>
