<svg version="1.1" id="Layer_1" xmlns="http://www.w3.org/2000/svg" x="0" y="0" viewBox="0 0 60 72" xml:space="preserve"><style>.st0{fill:#003161}</style><path class="st0" d="M30 15.4c-10.2 0-18.4 8.3-18.4 18.4 0 7.7 4.8 14.5 11.9 17.2v9.9c0 .6.5 1.1 1.1 1.1h1.1v2.2c0 .6.5 1.1 1.1 1.1h6.5c.6 0 1.1-.5 1.1-1.1V62h1.1c.6 0 1.1-.5 1.1-1.1V51c7.2-2.7 11.9-9.5 11.9-17.2-.1-10.1-8.3-18.4-18.5-18.4zm3.3 44.5c-.6 0-1.1.5-1.1 1.1v2.2h-4.3V61c0-.6-.5-1.1-1.1-1.1h-1.1v-5.4h8.7v5.4h-1.1zm1.8-10.6c-.4.1-.7.6-.7 1v2h-8.7v-2c0-.5-.3-.9-.7-1-6.7-2.2-11.2-8.4-11.2-15.4 0-9 7.3-16.3 16.3-16.3s16.3 7.3 16.3 16.3c-.1 7-4.6 13.2-11.3 15.4zM30 13.2c.6 0 1.1-.5 1.1-1.1V7.8c0-.6-.5-1.1-1.1-1.1-.6 0-1.1.5-1.1 1.1v4.3c0 .6.5 1.1 1.1 1.1zm26 19.5h-4.3c-.6 0-1.1.5-1.1 1.1 0 .6.5 1.1 1.1 1.1H56c.6 0 1.1-.5 1.1-1.1 0-.6-.5-1.1-1.1-1.1zm-47.7 0H4c-.6 0-1.1.5-1.1 1.1 0 .6.5 1.1 1.1 1.1h4.3c.6 0 1.1-.5 1.1-1.1 0-.6-.5-1.1-1.1-1.1zm39.3-18l-3.1 3.1c-.4.4-.4 1.1 0 1.5.2.2.5.3.8.3.3 0 .6-.1.8-.3l3.1-3.1c.4-.4.4-1.1 0-1.5-.5-.5-1.1-.5-1.6 0zM13.9 48.4l-3.1 3.1c-.4.4-.4 1.1 0 1.5.2.2.5.3.8.3.3 0 .6-.1.8-.3l3.1-3.1c.4-.4.4-1.1 0-1.5-.5-.4-1.2-.4-1.6 0zm32.2 0c-.4-.4-1.1-.4-1.5 0-.4.4-.4 1.1 0 1.5l3.1 3.1c.2.2.5.3.8.3.3 0 .6-.1.8-.3.4-.4.4-1.1 0-1.5l-3.2-3.1zM13.9 19.3c.2.2.5.3.8.3.3 0 .6-.1.8-.3.4-.4.4-1.1 0-1.5l-3.1-3.1c-.4-.4-1.1-.4-1.5 0-.4.4-.4 1.1 0 1.5l3 3.1zm0 0"/><path class="st0" d="M30 20.8c-7.2 0-13 5.8-13 13 0 .6.5 1.1 1.1 1.1.6 0 1.1-.5 1.1-1.1C19.2 27.9 24 23 30 23c.6 0 1.1-.5 1.1-1.1 0-.6-.5-1.1-1.1-1.1zm0 0"/></svg>