<svg xmlns="http://www.w3.org/2000/svg" viewBox="0 0 60 110"><path d="M31 23.3c-3.4-4.1-7-7-10.8-8.5-1.5-.6-3-.9-4.4-.9-5.5 0-8.2 4.5-8.9 5.9-1.2 2.4-1.2 5.1.2 7.4 1.6 2.6 4.6 4.2 7.8 4.2 1.6 0 3.2-.4 4.7-1.2 2.4-1.2 5-1.8 7.6-1.8 4.5 0 7.8 1.9 7.8 1.9h.2c.2 0 .3-.1.3-.3v-.2c-.4-.5-1.9-3.3-4.5-6.5zm22.4-2.4c-.4-.7-1.8-3.1-4.6-3.1-.7 0-1.5.2-2.3.5-4.6 1.8-7.5 6.9-8.1 7.9.5-.3 2.1-1 4.2-1 1.5 0 2.9.3 4.2 1 .8.4 1.6.6 2.5.6 1.7 0 3.2-.8 4-2.2.7-1.1.7-2.5.1-3.7zM38.7 7.1c-2.4 0-5.1 1.3-5.5 4.9-.5 4.9 2.6 9.9 3.2 10.8 0-.9.3-4.8 4-7.4 1.9-1.3 2.7-3.5 2-5.6-.6-1.6-2-2.7-3.7-2.7zm9.6 90.3V97l-8-55.4c-.1-.8-.8-1.3-1.5-1.3h-7.3c-.8 0-1.4.6-1.5 1.3l-8.1 55.8h-2.5c-.5 0-.9.4-.9.9v4.3c0 .5.4.9.9.9H51c.5 0 .9-.4.9-.9v-4.3c0-.5-.4-.9-.9-.9h-2.7zm-5.1-13.6L31 74.4l9.9-6.3 2.3 15.7zm-2.9-20.2l-7.9-5.9 6.3-5.3 1.6 11.2zm-7.5-20.2h4.6l.8 5.3-7 5.9 1.6-11.2zm-2.5 16.7l8 6-9.7 6.2 1.7-12.2zm-2.3 16l12.3 9.4-15.2 11.1L28 76.1zm2.2 20.6L43.7 87l1.4 9.8H30.2z" fill="#8da0ab"/></svg>