<svg version="1.1" id="Layer_1" xmlns="http://www.w3.org/2000/svg" x="0" y="0" viewBox="0 0 74 52" xml:space="preserve"><style>.st0{fill:#003161}</style><path class="st0" d="M37 37.2c-.8-.6-1.7-.8-2.6-.6-.1-.8-.6-1.6-1.2-2.1-.7-.5-1.5-.7-2.4-.6-.2 0-.4.1-.6.1-.2-.6-.6-1.2-1.2-1.7-1-.7-2.2-.8-3.2-.4-.2-.6-.6-1.2-1.1-1.6-.7-.5-1.5-.7-2.4-.6-.7.1-1.3.4-1.8.9l-3.4-.2 2.1-17 3.7.3h.1c.3 0 .7-.2.8-.5l1.4-2.7c.4-.7 1.2-1 1.9-.8l2.1.6c.5.1 1-.2 1.1-.6.1-.5-.2-1-.6-1.1L27.6 8c-1.6-.4-3.3.3-4.1 1.8L22.4 12l-3-.2.1-.6c.2-1.9-1.1-3.6-3-3.8l-7.2-1c-.5-.1-1 .3-1 .8-.1.5.3 1 .8 1l7.2.9c.4.1.8.3 1 .6.3.3.4.7.3 1.1l-2.5 20c-.1.8-.9 1.4-1.7 1.3l-7.2-.9c-.5-.1-1 .3-1 .8-.1.5.3 1 .8 1l7.2.9h.4c1.3 0 2.4-.7 3-1.8l2.6.2c-.3.6-.4 1.3-.3 1.9.1.9.6 1.6 1.3 2.1.6.4 1.3.7 2 .7h.5c.1.9.6 1.6 1.3 2.1.6.4 1.3.7 2 .7h.5c.1.8.5 1.6 1.3 2.2.6.4 1.3.7 2 .7h.5c.1.9.6 1.6 1.3 2.1.6.4 1.3.7 2 .7h.5c.9-.1 1.6-.6 2.1-1.3l1.9-2.5c.6-1.3.3-3.4-1.1-4.5zm-14.8-1.9c-.4.1-.7 0-1-.3-.3-.2-.5-.5-.5-.9-.1-.4 0-.7.3-1l.7-.9c.2-.3.5-.5.9-.5.4-.1.7 0 1 .3.3.2.5.5.5.9s0 .7-.3 1l-.7.9c-.2.3-.5.5-.9.5zm2.7 2.6c-.3-.2-.5-.5-.5-.9-.1-.4 0-.7.3-1l.7-.9.6-.8c.3-.4.7-.5 1.1-.5.3 0 .6.1.8.3.6.5.7 1.3.3 1.9l-1.3 1.8c-.5.4-1.4.5-2 .1zm3.7 2.8c-.3-.2-.5-.5-.5-.9-.1-.4 0-.7.3-1l1.3-1.8.5-.6c.2-.3.5-.5.9-.5.4-.1.7 0 1 .3.6.5.7 1.3.3 1.9l-1.8 2.4c-.5.5-1.4.6-2 .2zm7.6 0l-1.9 2.5c-.2.3-.5.5-.9.5-.4.1-.7 0-1-.3s-.5-.5-.5-.9c-.1-.4 0-.7.3-1l1.8-2.4.1-.1c.2-.3.5-.5.9-.5.4-.1.7 0 1 .3.5.4.6 1.3.2 1.9z"/><path class="st0" d="M68.8 32.1c-.1-.5-.5-.9-1-.8l-7.2.9c-.8.1-1.6-.5-1.7-1.3l-.1-.6v-.1l-2.4-19.3c-.1-.4.1-.8.3-1.1.3-.3.6-.5 1-.6l7.2-.9c.5-.1.9-.5.8-1-.1-.5-.5-.9-1-.8l-7.2.9c-1.8.2-3 1.7-3 3.5l-1.8.1-5.6-3.2c-.8-.4-1.7-.6-2.6-.6l-1.7.2c-.5 0-.9.5-.8 1 0 .5.5.9 1 .8l1.7-.2c.5 0 1.1.1 1.5.3l5.8 3.3c.2.1.4.2.6.1l2.1-.3 1.5 12.5.5 4.3h-3.4c-.2 0-.4.1-.6.2l-.3.2-8.4-7.3c1.9-.6 3.8-1.9 5.5-4 .3-.4.3-1-.1-1.3-.4-.3-1-.3-1.3.1-1.9 2.4-3.9 3.6-6 3.6-3 .1-5.2-2.4-5.2-2.5-.2-.2-.5-.3-.7-.3-.3 0-.5.1-.7.4L33 21.9c-1.3 1.7-3.6 2.4-5.6 1.6l-.3-.1c-.2-.1-.3-.3-.4-.4 0-.1-.1-.3 0-.5l6.5-11.2c.4-.7 1.2-1.2 2-1.3l3.9-.4c.5 0 .9-.5.8-1 0-.5-.5-.9-1-.8l-3.9.4c-1.4.1-2.7 1-3.5 2.2L25 21.6c-.4.6-.4 1.4-.2 2.1s.8 1.2 1.5 1.5l.3.1c.8.3 1.6.4 2.4.4 2 0 4-.9 5.3-2.6l1.9-2.4c1 .9 2.9 2.1 5.3 2.3l12.2 10.5c.2.2.4.5.4.7s-.1.6-.3.8l-.5.5c-.6.7-1.6.8-2.3.2l-.1-.1-3.2-2.7c-.4-.3-1-.3-1.3.1-.3.4-.3 1 .1 1.3l2.6 2.2-1.1 1.3c-.4.4-.9.6-1.4.6-.3 0-.6-.2-.9-.4l-2.9-2.5c-.4-.3-1-.3-1.3.1-.3.4-.3 1 .1 1.3l2.2 1.9-1.2 1.4c-.4.4-.9.6-1.4.6-.5-.1-1 .3-1 .8-.1.5.3 1 .8 1h.4c1 0 2-.4 2.7-1.2l1.3-1.5c.3.2.7.3 1.1.3 1.2.1 2.3-.3 3.1-1.2l1.3-1.5c1.4.7 3.1.3 4.2-.9l.5-.6c.5-.6.8-1.4.7-2.1-.1-.8-.4-1.5-1-2l-.8-.7h2.8c.3 1.6 1.7 2.8 3.3 2.8h.4l7.2-.9c.3 0 .7-.5.6-1z"/><path class="st0" d="M62.8 25.4c-1.5 0-2.7 1.2-2.7 2.7 0 1.5 1.2 2.7 2.7 2.7 1.5 0 2.7-1.2 2.7-2.7.1-1.5-1.2-2.7-2.7-2.7zm0 3.6c-.5 0-.9-.4-.9-.9s.4-.9.9-.9.9.4.9.9-.4.9-.9.9zm-49-.9c0-1.5-1.2-2.7-2.7-2.7s-2.7 1.2-2.7 2.7c0 1.5 1.2 2.7 2.7 2.7s2.7-1.2 2.7-2.7zm-3.6 0c0-.5.4-.9.9-.9s.9.4.9.9-.5.9-.9.9c-.5 0-.9-.4-.9-.9z"/></svg>
