<svg xmlns="http://www.w3.org/2000/svg" viewBox="0 0 60 72"><path d="M53.4 27.7c0-.1 0-.2-.1-.3 0-.1-.1-.2-.1-.2l-.1-.1h-.3l-15.3-6.6v-5.3h14v4c0 .5.4.9.9.9s.9-.4.9-.9v-5.1c0-.1 0-.2-.1-.3 0-.1-.1-.2-.1-.2l-.1-.1h-.3L37 6.4c-.1 0-.2-.1-.4-.1H23.4c-.1 0-.3 0-.4.1L7.1 13.2H7V19c-.5.6 0 1 .5 1s.9-.4.9-.9v-4h14v5.3L7.1 26.9H7v5.3c0 .5.4.9.9.9s.9-.4.9-.9v-4h13.7L10.9 64.5v.3c0 .1.1.2.1.3 0 0 0 .1.1.1h.1l.1.1s.1 0 .1.1h.3c.2 0 .4-.1.6-.2l.1-.1 27-25.3 6.7 21.4-12.7-11.6c-.4-.4-1-.3-1.3 0-.4.4-.3 1 0 1.3l15.4 14.4c.2.2.4.3.6.3.2 0 .3 0 .5-.1.4-.2.5-.7.4-1.1L37.9 28.8h13.7v4c0 .5.4.9.9.9s.9-.4.9-.9v-4.9c.1-.1.1-.1 0-.2.1.1.1 0 0 0zm-29-.8v-5h11.3v5H24.4zm13.1-13.7V8.7l10.4 4.5H37.5zm-13.1-5h11.3v5H24.4v-5zm-12.3 5l10.4-4.5v4.5H12.1zm23.5 1.9v5H24.4v-5h11.2zm-13.1 7.3v4.5H12.1l10.4-4.5zm-2 17.8l8.1 7.6-14.8 13.8 6.7-21.4zm18.3-2L30 46.4l-8.8-8.3 3-9.4H36l2.8 9.5zm-1.3-11.3v-4.5l10.4 4.5H37.5zm0 0" fill="#003161"/></svg>
